<svg width="22" height="22" fill="none" xmlns="http://www.w3.org/2000/svg"><path d="M11.75 7.333a.75.75 0 0 0-1.5 0h1.5ZM11 11h-.75c0 .199.079.39.22.53L11 11Zm1.303 2.364a.75.75 0 0 0 1.06-1.061l-1.06 1.06Zm-2.053-6.03V11h1.5V7.333h-1.5Zm.22 4.196 1.833 1.834 1.06-1.061-1.833-1.833-1.06 1.06ZM18.5 11a7.5 7.5 0 0 1-7.5 7.5V20a9 9 0 0 0 9-9h-1.5ZM11 18.5A7.5 7.5 0 0 1 3.5 11H2a9 9 0 0 0 9 9v-1.5ZM3.5 11A7.5 7.5 0 0 1 11 3.5V2a9 9 0 0 0-9 9h1.5ZM11 3.5a7.5 7.5 0 0 1 7.5 7.5H20a9 9 0 0 0-9-9v1.5Z" fill="#000"/></svg>