<svg xmlns="http://www.w3.org/2000/svg" viewBox="0 0 58 58" style="enable-background:new 0 0 58 58" xml:space="preserve"><path style="fill:none" d="M-62.7-3.7h58v58h-58z"/><path d="M27.5.5c.9-.6 2.1-.6 3 0l26.3 17.4c.8.5 1.2 1.4 1.2 2.3v17.7c0 .9-.5 1.8-1.2 2.3L30.5 57.5c-.9.6-2.1.6-3 0L1.2 40.1C.5 39.6 0 38.7 0 37.8V20.2c0-.9.5-1.8 1.2-2.3L27.5.5zm-22 24.8v7.4L11 29l-5.5-3.7zM16 32.2l-8.3 5.6 18.6 12.3v-11L16 32.2zm15.7 6.9v11.1l18.6-12.3-8.3-5.7-10.3 6.9zM47 29l5.5 3.7v-7.4L47 29zm3.3-8.8L42 25.6l-10.3-6.9V7.9l18.6 12.3zm-24-12.3v10.8L16 25.6l-8.2-5.5L26.3 7.9zM29 23.5l-8.1 5.4 8.1 5.4 8.1-5.4-8.1-5.4z" style="fill-rule:evenodd;clip-rule:evenodd;fill:#94a3b8"/></svg>