<svg width="58" height="58" fill="none" xmlns="http://www.w3.org/2000/svg"><g clip-path="url(#a)"><path fill-rule="evenodd" clip-rule="evenodd" d="M27.482.46a2.74 2.74 0 0 1 3.036 0l26.254 17.424A2.742 2.742 0 0 1 58 20.17v17.66c0 .919-.46 1.78-1.228 2.29L30.518 57.542a2.75 2.75 0 0 1-3.036 0L1.228 40.117A2.745 2.745 0 0 1 0 37.83V20.17c0-.919.46-1.779 1.228-2.289L27.482.459ZM5.491 25.285v7.39l5.529-3.722-5.53-3.668Zm10.48 6.955-8.286 5.575 18.57 12.325V39.066l-10.28-6.825h-.003Zm15.774 6.825v11.073l18.57-12.325-8.29-5.573-10.28 6.825Zm15.233-10.11 5.534 3.722v-7.395l-5.534 3.674Zm3.313-8.786-8.241 5.468-10.305-6.93V7.861L50.291 20.17ZM26.255 7.862v10.843l-10.303 6.931L7.71 20.17 26.255 7.862ZM29 23.478l-8.096 5.447L29 34.297l8.096-5.372L29 23.478Z" fill="#fff"/></g><defs><clipPath id="a"><path fill="#fff" d="M0 0h58v58H0z"/></clipPath></defs></svg>