<svg width="18" height="18" viewBox="0 0 18 18" fill="none" xmlns="http://www.w3.org/2000/svg">
<path d="M15.583 9.00001C15.583 9.19893 15.6621 9.38969 15.8027 9.53034C15.9434 9.67099 16.1341 9.75001 16.333 9.75001C16.532 9.75001 16.7227 9.67099 16.8634 9.53034C17.004 9.38969 17.083 9.19893 17.083 9.00001H15.583ZM8.08305 0.750012L8.10304 1.24711e-05C7.95346 -0.00390087 7.80612 0.0370214 7.67998 0.117517C7.55384 0.198013 7.45466 0.314402 7.39519 0.451717C7.33573 0.589032 7.3187 0.740996 7.34629 0.888067C7.37389 1.03514 7.44485 1.17059 7.55005 1.27701L8.08305 0.750012ZM0.750045 13.583L0.900045 12.848C0.753682 12.8179 0.601675 12.8323 0.463516 12.8892C0.325357 12.9461 0.207344 13.043 0.12461 13.1674C0.0418766 13.2918 -0.001807 13.4381 -0.000838738 13.5875C0.000129522 13.737 0.0457055 13.8827 0.130045 14.006L0.750045 13.583ZM15.083 14.713C15.1451 14.6365 15.1915 14.5484 15.2195 14.4539C15.2475 14.3595 15.2567 14.2604 15.2464 14.1624C15.2361 14.0644 15.2067 13.9693 15.1597 13.8827C15.1127 13.7961 15.0491 13.7196 14.9725 13.6575C14.896 13.5955 14.808 13.5491 14.7135 13.5211C14.619 13.493 14.5199 13.4839 14.4219 13.4942C14.3239 13.5044 14.2289 13.5339 14.1422 13.5809C14.0556 13.6279 13.9791 13.6915 13.917 13.768L15.083 14.712V14.713ZM17.083 9.00001C17.083 4.09301 13.073 0.130012 8.10304 1.24711e-05L8.06304 1.50001C12.261 1.61001 15.583 4.94501 15.583 9.00001H17.083ZM0.130045 14.006C1.80504 16.46 4.90004 18 8.08305 18V16.5C5.34704 16.5 2.73704 15.165 1.37004 13.16L0.130045 14.006ZM0.600045 14.318C4.61004 15.134 8.04604 13.044 9.75404 10.076C11.464 7.10401 11.5 3.14401 8.61704 0.223013L7.55005 1.27701C9.87704 3.63401 9.89005 6.83201 8.45504 9.32701C7.01604 11.827 4.18005 13.515 0.901045 12.848L0.601045 14.318H0.600045ZM8.08305 18C10.956 18 13.453 16.723 15.083 14.712L13.917 13.768C12.567 15.433 10.497 16.5 8.08305 16.5V18Z" fill="black"/>
</svg>
