<svg width="18" height="18" viewBox="0 0 18 18" fill="none" xmlns="http://www.w3.org/2000/svg">
<path d="M15.583 9.00026C15.583 9.19917 15.6621 9.38993 15.8027 9.53059C15.9434 9.67124 16.1341 9.75026 16.333 9.75026C16.532 9.75026 16.7227 9.67124 16.8634 9.53059C17.004 9.38993 17.083 9.19917 17.083 9.00026H15.583ZM8.08305 0.750257L8.10304 0.000256612C7.95346 -0.00365673 7.80612 0.0372656 7.67998 0.117761C7.55384 0.198257 7.45466 0.314646 7.39519 0.451961C7.33573 0.589276 7.3187 0.74124 7.34629 0.888311C7.37389 1.03538 7.44485 1.17084 7.55005 1.27726L8.08305 0.750257V0.750257ZM0.750045 13.5833L0.900045 12.8483C0.753682 12.8182 0.601675 12.8325 0.463516 12.8894C0.325357 12.9463 0.207344 13.0432 0.12461 13.1676C0.0418766 13.2921 -0.001807 13.4384 -0.000838738 13.5878C0.000129522 13.7372 0.0457055 13.8829 0.130045 14.0063L0.750045 13.5833V13.5833ZM15.083 14.7133C15.1451 14.6367 15.1915 14.5487 15.2195 14.4542C15.2475 14.3597 15.2567 14.2606 15.2464 14.1626C15.2361 14.0646 15.2067 13.9696 15.1597 13.883C15.1127 13.7963 15.0491 13.7198 14.9725 13.6578C14.896 13.5957 14.808 13.5493 14.7135 13.5213C14.619 13.4933 14.5199 13.4841 14.4219 13.4944C14.3239 13.5047 14.2289 13.5341 14.1422 13.5811C14.0556 13.6281 13.9791 13.6917 13.917 13.7683L15.083 14.7123V14.7133ZM17.083 9.00026C17.083 4.09326 13.073 0.130257 8.10304 0.000256612L8.06304 1.50026C12.261 1.61026 15.583 4.94526 15.583 9.00026H17.083ZM0.130045 14.0063C1.80504 16.4603 4.90004 18.0003 8.08305 18.0003V16.5003C5.34704 16.5003 2.73704 15.1653 1.37004 13.1603L0.130045 14.0063V14.0063ZM0.600045 14.3183C4.61004 15.1343 8.04604 13.0443 9.75404 10.0763C11.464 7.10426 11.5 3.14426 8.61704 0.223257L7.55005 1.27726C9.87704 3.63426 9.89004 6.83226 8.45504 9.32726C7.01604 11.8273 4.18004 13.5153 0.901045 12.8483L0.601045 14.3183H0.600045ZM8.08305 18.0003C10.956 18.0003 13.453 16.7233 15.083 14.7123L13.917 13.7683C12.567 15.4333 10.497 16.5003 8.08305 16.5003V18.0003V18.0003Z" fill="#F1F5F9"/>
</svg>
