<svg width="31" height="30" fill="none" xmlns="http://www.w3.org/2000/svg"><rect x=".5" y=".5" width="30" height="29" rx="3.5" fill="#fff" stroke="#B8B8B8"/><path d="M22.583 15a.75.75 0 0 0 1.5 0h-1.5Zm-7.5-8.25.02-.75a.75.75 0 0 0-.553 1.277l.533-.527ZM7.75 19.583l.15-.735a.75.75 0 0 0-.77 1.158l.62-.423Zm14.333 1.13a.75.75 0 1 0-1.166-.945l1.166.944Zm2-5.713c0-4.907-4.01-8.87-8.98-9l-.04 1.5c4.198.11 7.52 3.445 7.52 7.5h1.5ZM7.13 20.006C8.805 22.46 11.9 24 15.083 24v-1.5c-2.736 0-5.346-1.335-6.713-3.34l-1.24.846Zm.47.312c4.01.816 7.446-1.274 9.154-4.242 1.71-2.972 1.746-6.932-1.137-9.853L14.55 7.277c2.327 2.357 2.34 5.555.905 8.05-1.439 2.5-4.275 4.188-7.554 3.521l-.3 1.47ZM15.083 24c2.873 0 5.37-1.277 7-3.288l-1.166-.944c-1.35 1.665-3.42 2.732-5.834 2.732V24Z" fill="#000"/></svg>