<svg width="58" height="58" fill="none" xmlns="http://www.w3.org/2000/svg"><path fill-rule="evenodd" clip-rule="evenodd" d="M29 0C12.977 0 0 13.306 0 29.733c0 13.158 8.301 24.27 19.829 28.21 1.45.26 1.994-.632 1.994-1.412 0-.706-.037-3.048-.037-5.538-7.286 1.375-9.171-1.821-9.751-3.494-.326-.855-1.74-3.493-2.973-4.2-1.014-.557-2.464-1.932-.036-1.97 2.284-.037 3.915 2.156 4.459 3.048 2.61 4.497 6.779 3.234 8.446 2.453.254-1.932 1.015-3.233 1.849-3.977-6.453-.743-13.195-3.307-13.195-14.68 0-3.234 1.124-5.91 2.972-7.991-.29-.744-1.305-3.791.29-7.88 0 0 2.43-.78 7.976 3.048a26.288 26.288 0 0 1 7.25-1.004c2.465 0 4.93.335 7.25 1.004 5.546-3.865 7.974-3.048 7.974-3.048 1.596 4.089.58 7.136.29 7.88 1.85 2.081 2.973 4.72 2.973 7.99 0 11.41-6.779 13.938-13.231 14.681 1.051.93 1.957 2.714 1.957 5.501 0 3.977-.036 7.173-.036 8.177 0 .78.544 1.71 1.994 1.412C44 55.95 49.004 52.157 52.547 47.096c3.544-5.06 5.451-11.133 5.453-17.362C58 13.305 45.023 0 29 0Z" fill="#fff"/></svg>