<svg xmlns="http://www.w3.org/2000/svg" viewBox="0 0 58 58" style="enable-background:new 0 0 58 58" xml:space="preserve"><path d="M29 0C13 0 0 13.3 0 29.7 0 42.9 8.3 54 19.8 57.9c1.5.3 2-.6 2-1.4V51c-7.3 1.4-9.2-1.8-9.8-3.5-.3-.9-1.7-3.5-3-4.2-1-.6-2.5-1.9 0-2 2.3 0 3.9 2.2 4.5 3 2.6 4.5 6.8 3.2 8.4 2.5.3-1.9 1-3.2 1.8-4-6.5-.7-13.2-3.3-13.2-14.7 0-3.2 1.1-5.9 3-8-.3-.7-1.3-3.8.3-7.9 0 0 2.4-.8 8 3 2.4-.7 4.8-1 7.2-1 2.5 0 4.9.3 7.2 1 5.5-3.9 8-3 8-3 1.6 4.1.6 7.1.3 7.9 1.8 2.1 3 4.7 3 8 0 11.4-6.8 13.9-13.2 14.7 1.1.9 2 2.7 2 5.5v8.2c0 .8.5 1.7 2 1.4C44 56 49 52.2 52.5 47.1 56.1 42 58 36 58 29.7 58 13.3 45 0 29 0z" style="fill-rule:evenodd;clip-rule:evenodd;fill:#94a3b8"/></svg>