<svg xmlns="http://www.w3.org/2000/svg" viewBox="0 0 58 58" style="enable-background:new 0 0 58 58" xml:space="preserve"><path d="M18 2.6c2.8-.1 3.7-.2 11-.2s8.1 0 11 .2 4.8.6 6.5 1.2c1.8.7 3.4 1.7 4.7 3.1 1.4 1.3 2.4 2.9 3.1 4.7.7 1.7 1.1 3.6 1.2 6.5.1 2.8.2 3.7.2 11 0 7.2 0 8.1-.2 11-.1 2.8-.6 4.8-1.2 6.5-.7 1.8-1.7 3.4-3.1 4.7-1.3 1.4-2.9 2.4-4.7 3.1-1.7.7-3.6 1.1-6.5 1.2-2.8.1-3.7.2-11 .2s-8.1 0-11-.2c-2.8-.1-4.8-.6-6.5-1.2-1.8-.7-3.4-1.7-4.7-3.1-1.4-1.3-2.4-2.9-3.1-4.7-.7-1.7-1.1-3.6-1.2-6.5-.1-2.8-.2-3.7-.2-11 0-7.2 0-8.1.2-11s.6-4.8 1.2-6.5c.7-1.8 1.7-3.4 3.1-4.7 1.3-1.4 2.9-2.4 4.7-3.1 1.8-.6 3.7-1.1 6.5-1.2zm21.7 4.8c-2.8-.2-3.6-.2-10.7-.2s-7.9 0-10.7.2c-2.6.1-4 .6-4.9.9-1.2.5-2.1 1.1-3.1 2-.9.9-1.6 1.9-2 3.1-.4.9-.8 2.3-.9 4.9-.2 2.8-.2 3.6-.2 10.7s0 7.9.2 10.7c.1 2.6.6 4 .9 4.9.4 1.2 1.1 2.2 2 3.1.9.9 1.9 1.6 3.1 2 .9.4 2.3.8 4.9.9 2.8.1 3.6.2 10.7.2s7.9 0 10.7-.2c2.6-.1 4-.6 4.9-.9 1.2-.5 2.1-1.1 3.1-2 .9-.9 1.6-1.9 2-3.1.4-.9.8-2.3.9-4.9.1-2.8.2-3.6.2-10.7s0-7.9-.2-10.7c-.1-2.6-.6-4-.9-4.9-.5-1.2-1.1-2.1-2-3.1-.9-.9-1.9-1.6-3.1-2-.9-.4-2.3-.8-4.9-.9zM25.6 37.2c4.5 1.9 9.7-.3 11.6-4.8 1.4-3.3.6-7.2-1.9-9.7-3.5-3.5-9.1-3.5-12.5 0s-3.5 9.1 0 12.5c.7.9 1.7 1.5 2.8 2zm-6.3-17.9c5.3-5.3 14-5.3 19.3 0s5.3 14 0 19.3-14 5.3-19.3 0-5.3-13.9 0-19.3zm26.4-1.9c1.3-1.2 1.4-3.3.1-4.6-1.2-1.3-3.3-1.4-4.6-.1s-1.4 3.3-.1 4.6c1.3 1.2 3.3 1.3 4.6.1z" style="fill-rule:evenodd;clip-rule:evenodd;fill:#94a3b8"/></svg>