<svg width="58" height="58" fill="none" xmlns="http://www.w3.org/2000/svg"><path fill-rule="evenodd" clip-rule="evenodd" d="M18.04 2.576c2.835-.13 3.739-.16 10.96-.16 7.221 0 8.125.032 10.957.16 2.832.128 4.766.58 6.457 1.235a13.08 13.08 0 0 1 4.708 3.07 12.985 12.985 0 0 1 3.065 4.705c.657 1.691 1.106 3.625 1.237 6.452.13 2.84.16 3.744.16 10.962 0 7.221-.032 8.125-.16 10.96-.128 2.827-.58 4.76-1.237 6.452a13.04 13.04 0 0 1-3.065 4.71 13.035 13.035 0 0 1-4.708 3.065c-1.691.657-3.625 1.106-6.452 1.237-2.837.13-3.741.16-10.962.16s-8.125-.032-10.96-.16c-2.827-.128-4.76-.58-6.452-1.237a13.042 13.042 0 0 1-4.71-3.065 13.03 13.03 0 0 1-3.067-4.707c-.655-1.692-1.104-3.625-1.235-6.453-.13-2.84-.16-3.743-.16-10.962 0-7.22.032-8.125.16-10.957.128-2.832.58-4.766 1.235-6.457a13.04 13.04 0 0 1 3.07-4.708 13.03 13.03 0 0 1 4.704-3.067c1.692-.655 3.625-1.104 6.453-1.235h.002Zm21.702 4.785C36.94 7.233 36.098 7.207 29 7.207c-7.098 0-7.939.026-10.742.154-2.593.119-4 .551-4.937.916-1.24.484-2.127 1.056-3.057 1.987a8.246 8.246 0 0 0-1.987 3.057c-.365.937-.797 2.344-.916 4.937-.128 2.803-.154 3.644-.154 10.742 0 7.098.026 7.939.154 10.742.119 2.593.551 4 .916 4.937a8.251 8.251 0 0 0 1.987 3.057 8.25 8.25 0 0 0 3.057 1.987c.937.365 2.344.797 4.937.916 2.803.128 3.642.155 10.742.155 7.1 0 7.939-.027 10.742-.155 2.593-.119 4-.551 4.937-.916 1.24-.483 2.127-1.056 3.057-1.986a8.25 8.25 0 0 0 1.987-3.058c.365-.937.797-2.344.916-4.937.128-2.803.154-3.644.154-10.742 0-7.098-.026-7.939-.154-10.742-.119-2.593-.551-4-.916-4.937-.483-1.24-1.056-2.127-1.987-3.057a8.247 8.247 0 0 0-3.057-1.987c-.937-.365-2.344-.797-4.937-.916ZM25.605 37.195a8.866 8.866 0 0 0 9.666-14.466 8.87 8.87 0 1 0-9.666 14.466Zm-6.267-17.857a13.664 13.664 0 1 1 19.324 19.324 13.664 13.664 0 0 1-19.324-19.324Zm26.356-1.967a3.23 3.23 0 1 0-4.432-4.7 3.23 3.23 0 0 0 4.432 4.7Z" fill="#fff"/></svg>