<svg width="114" height="30" viewBox="0 0 114 30" fill="none" xmlns="http://www.w3.org/2000/svg">
<path d="M0 14.8845C0 11.0657 1.38625 7.78327 4.16228 5.04084C6.92423 2.2984 10.2421 0.927185 14.1194 0.927185C17.9967 0.927185 21.2336 2.30906 23.9709 5.07636C26.7223 7.84366 28.098 11.1651 28.098 15.0408C28.098 18.9164 26.7153 22.2521 23.9533 24.9732C21.1808 27.705 17.8313 29.0691 13.9083 29.0691C10.4391 29.0691 7.32181 27.8578 4.55986 25.4315C1.51995 22.7459 0 19.2326 0 14.8845ZM4.09191 14.9378C4.09191 17.936 5.09114 20.4049 7.08608 22.3374C9.07046 24.2699 11.3609 25.2361 13.961 25.2361C16.7828 25.2361 19.1613 24.2521 21.0999 22.2841C23.0385 20.2912 24.0061 17.8685 24.0061 15.0088C24.0061 12.1491 23.0491 9.6909 21.1351 7.73354C19.2316 5.76552 16.8743 4.78151 14.0666 4.78151C11.2589 4.78151 8.90861 5.76552 6.98052 7.73354C5.05244 9.68024 4.09191 12.0816 4.09191 14.9413V14.9378Z" fill="#F1F5F9"/>
<path d="M31.3807 11.4564H35.3143V13.0372C36.6829 11.666 38.2275 10.9803 39.9445 10.9803C41.9183 10.9803 43.4559 11.6091 44.5571 12.8596C45.5071 13.9253 45.9856 15.6659 45.9856 18.0815V28.5753H42.052V19.0123C42.052 17.3249 41.8198 16.1597 41.3554 15.5132C40.9015 14.856 40.0782 14.5292 38.8819 14.5292C37.5836 14.5292 36.6583 14.9626 36.113 15.8293C35.5782 16.6855 35.3108 18.1775 35.3108 20.3124V28.5717H31.3772V11.4564H31.3807Z" fill="#F1F5F9"/>
<path d="M65.3017 20.9483H53.1491C53.2547 22.3551 53.705 23.4741 54.5072 24.3053C55.3094 25.1259 56.3368 25.5344 57.5893 25.5344C58.5639 25.5344 59.3697 25.3 60.01 24.8311C60.6363 24.3622 61.3505 23.4954 62.1527 22.2307L65.46 24.0922C64.9499 24.9696 64.408 25.7227 63.8415 26.3515C63.2716 26.9803 62.6629 27.4954 62.012 27.8968C61.3611 28.3018 60.6609 28.5966 59.9044 28.7849C59.1515 28.9732 58.3317 29.0655 57.4486 29.0655C54.9189 29.0655 52.8887 28.2449 51.3547 26.6037C49.8242 24.9519 49.0572 22.76 49.0572 20.0283C49.0572 17.2965 49.7996 15.1295 51.2843 13.4564C52.7832 11.8045 54.7676 10.9768 57.2375 10.9768C59.7074 10.9768 61.7059 11.7796 63.1555 13.3853C64.5945 14.9803 65.3158 17.1864 65.3158 20.0105L65.2982 20.9412L65.3017 20.9483ZM61.2801 17.7157C60.7348 15.6056 59.4189 14.5505 57.329 14.5505C56.854 14.5505 56.4072 14.6251 55.9885 14.7707C55.5698 14.9164 55.1898 15.1295 54.8485 15.4031C54.5072 15.6802 54.2117 16.0105 53.9689 16.3977C53.7261 16.7849 53.5396 17.2254 53.413 17.7157H61.2801V17.7157Z" fill="#F1F5F9"/>
<path d="M78.3655 14.373L75.1286 16.1136C74.6184 15.0586 73.9851 14.5328 73.2322 14.5328C72.8733 14.5328 72.5637 14.6536 72.3103 14.8916C72.0535 15.1332 71.9268 15.4387 71.9268 15.8152C71.9268 16.4724 72.6798 17.1225 74.1892 17.7655C76.265 18.6678 77.6654 19.4991 78.3831 20.2628C79.1044 21.023 79.4633 22.0497 79.4633 23.3392C79.4633 24.991 78.8581 26.3729 77.6513 27.4884C76.4797 28.5434 75.0617 29.0692 73.4046 29.0692C70.5617 29.0692 68.5492 27.6695 67.3635 24.8703L70.706 23.3072C71.1704 24.1278 71.5257 24.65 71.7685 24.8703C72.2435 25.3143 72.8135 25.5381 73.4749 25.5381C74.7979 25.5381 75.4593 24.9271 75.4593 23.7086C75.4593 23.0053 74.9492 22.3481 73.9288 21.7406C73.5348 21.5417 73.1407 21.3498 72.7466 21.1616C72.3526 20.9733 71.9515 20.7815 71.5469 20.5825C70.4104 20.0213 69.6082 19.4564 69.1438 18.8952C68.5527 18.1811 68.2571 17.2611 68.2571 16.135C68.2571 14.6465 68.7603 13.4174 69.7701 12.444C70.8045 11.4707 72.057 10.984 73.5312 10.984C75.7021 10.984 77.3135 12.1137 78.3691 14.3765L78.3655 14.373Z" fill="#F1F5F9"/>
<path d="M81.3175 4.33747C81.3175 3.64476 81.5673 3.04796 82.0669 2.54352C82.5665 2.03908 83.1646 1.78687 83.8613 1.78687C84.5579 1.78687 85.1737 2.03908 85.6733 2.54352C86.1729 3.0373 86.4227 3.63765 86.4227 4.35523C86.4227 5.07281 86.1729 5.68027 85.6733 6.18471C85.1842 6.68915 84.5896 6.94136 83.8789 6.94136C83.1682 6.94136 82.5665 6.68915 82.0669 6.18471C81.5673 5.68027 81.3175 5.06571 81.3175 4.34102V4.33747ZM85.8246 11.4564V28.5753H81.9086V11.4564H85.8246Z" fill="#F1F5F9"/>
<path d="M93.7586 15.1473V28.5753H89.8426V15.1473H88.1714V11.4564H89.8426V5.18286H93.7586V11.4564H96.8055V15.1473H93.7586Z" fill="#F1F5F9"/>
<path d="M113.842 20.9483H101.689C101.795 22.3551 102.245 23.4741 103.047 24.3053C103.849 25.1259 104.877 25.5344 106.129 25.5344C107.104 25.5344 107.91 25.3 108.55 24.8311C109.176 24.3622 109.89 23.4954 110.693 22.2307L114 24.0922C113.49 24.9696 112.948 25.7227 112.382 26.3515C111.812 26.9803 111.203 27.4954 110.552 27.8968C109.901 28.3018 109.201 28.5966 108.444 28.7849C107.691 28.9732 106.872 29.0655 105.989 29.0655C103.459 29.0655 101.429 28.2449 99.8947 26.6037C98.3642 24.9519 97.5972 22.76 97.5972 20.0283C97.5972 17.2965 98.3395 15.1295 99.8243 13.4564C101.323 11.8045 103.308 10.9768 105.777 10.9768C108.247 10.9768 110.246 11.7796 111.695 13.3853C113.134 14.9803 113.856 17.1864 113.856 20.0105L113.838 20.9412L113.842 20.9483ZM109.82 17.7157C109.275 15.6056 107.959 14.5505 105.869 14.5505C105.394 14.5505 104.947 14.6251 104.528 14.7707C104.11 14.9164 103.73 15.1295 103.388 15.4031C103.047 15.6802 102.752 16.0105 102.509 16.3977C102.266 16.7849 102.08 17.2254 101.953 17.7157H109.82V17.7157Z" fill="#F1F5F9"/>
<path d="M83.9493 7.69445C86.0537 7.69445 87.7597 5.97199 87.7597 3.84722C87.7597 1.72246 86.0537 0 83.9493 0C81.8448 0 80.1388 1.72246 80.1388 3.84722C80.1388 5.97199 81.8448 7.69445 83.9493 7.69445Z" fill="url(#paint0_linear_309_4)"/>
<defs>
<linearGradient id="paint0_linear_309_4" x1="81.2542" y1="6.56834" x2="86.6961" y2="1.17839" gradientUnits="userSpaceOnUse">
<stop stop-color="#007CF0"/>
<stop offset="0.14" stop-color="#0085ED"/>
<stop offset="0.38" stop-color="#009EE7"/>
<stop offset="0.4" stop-color="#00A0E7"/>
<stop offset="0.7" stop-color="#00BDDF"/>
<stop offset="1" stop-color="#00DFD8"/>
</linearGradient>
</defs>
</svg>
