<?xml version="1.0" encoding="UTF-8"?><svg id="_レイヤー_1" xmlns="http://www.w3.org/2000/svg" xmlns:xlink="http://www.w3.org/1999/xlink" viewBox="0 0 324 81.83"><defs><style>.cls-1{fill:url(#_名称未設定グラデーション_27);}</style><linearGradient id="_名称未設定グラデーション_27" x1="230.94" y1="18.49" x2="246.26" y2="3.17" gradientUnits="userSpaceOnUse"><stop offset="0" stop-color="#007cf0"/><stop offset=".14" stop-color="#0085ed"/><stop offset=".38" stop-color="#009ee7"/><stop offset=".4" stop-color="#00a0e7"/><stop offset=".7" stop-color="#00bddf"/><stop offset="1" stop-color="#00dfd8"/></linearGradient></defs><g><path d="M0,41.9C0,31.15,3.94,21.91,11.83,14.19,19.68,6.47,29.11,2.61,40.13,2.61s20.22,3.89,28,11.68c7.82,7.79,11.73,17.14,11.73,28.05s-3.93,20.3-11.78,27.96c-7.88,7.69-17.4,11.53-28.55,11.53-9.86,0-18.72-3.41-26.57-10.24C4.32,64.03,0,54.14,0,41.9Zm11.63,.15c0,8.44,2.84,15.39,8.51,20.83,5.64,5.44,12.15,8.16,19.54,8.16,8.02,0,14.78-2.77,20.29-8.31,5.51-5.61,8.26-12.43,8.26-20.48s-2.72-14.97-8.16-20.48c-5.41-5.54-12.11-8.31-20.09-8.31s-14.66,2.77-20.14,8.31c-5.48,5.48-8.21,12.24-8.21,20.29Z"/><path d="M89.19,32.25h11.18v4.45c3.89-3.86,8.28-5.79,13.16-5.79,5.61,0,9.98,1.77,13.11,5.29,2.7,3,4.06,7.9,4.06,14.7v29.54h-11.18v-26.92c0-4.75-.66-8.03-1.98-9.85-1.29-1.85-3.63-2.77-7.03-2.77-3.69,0-6.32,1.22-7.87,3.66-1.52,2.41-2.28,6.61-2.28,12.62v23.25h-11.18V32.25Z"/><path d="M185.6,58.97h-34.54c.3,3.96,1.58,7.11,3.86,9.45,2.28,2.31,5.2,3.46,8.76,3.46,2.77,0,5.06-.66,6.88-1.98,1.78-1.32,3.81-3.76,6.09-7.32l9.4,5.24c-1.45,2.47-2.99,4.59-4.6,6.36-1.62,1.77-3.35,3.22-5.2,4.35-1.85,1.14-3.84,1.97-5.99,2.5-2.14,.53-4.47,.79-6.98,.79-7.19,0-12.96-2.31-17.32-6.93-4.35-4.65-6.53-10.82-6.53-18.51s2.11-13.79,6.33-18.5c4.26-4.65,9.9-6.98,16.92-6.98s12.7,2.26,16.82,6.78c4.09,4.49,6.14,10.7,6.14,18.65l-.05,2.62Zm-11.43-9.1c-1.55-5.94-5.29-8.91-11.23-8.91-1.35,0-2.62,.21-3.81,.62-1.19,.41-2.27,1.01-3.24,1.78-.97,.78-1.81,1.71-2.5,2.8-.69,1.09-1.22,2.33-1.58,3.71h22.36Z"/><path d="M222.73,40.46l-9.2,4.9c-1.45-2.97-3.25-4.45-5.39-4.45-1.02,0-1.9,.34-2.62,1.01-.73,.68-1.09,1.54-1.09,2.6,0,1.85,2.14,3.68,6.43,5.49,5.9,2.54,9.88,4.88,11.92,7.03,2.05,2.14,3.07,5.03,3.07,8.66,0,4.65-1.72,8.54-5.15,11.68-3.33,2.97-7.36,4.45-12.07,4.45-8.08,0-13.8-3.94-17.17-11.82l9.5-4.4c1.32,2.31,2.33,3.78,3.02,4.4,1.35,1.25,2.97,1.88,4.85,1.88,3.76,0,5.64-1.72,5.64-5.15,0-1.98-1.45-3.83-4.35-5.54-1.12-.56-2.24-1.1-3.36-1.63-1.12-.53-2.26-1.07-3.41-1.63-3.23-1.58-5.51-3.17-6.83-4.75-1.68-2.01-2.52-4.6-2.52-7.77,0-4.19,1.43-7.65,4.3-10.39,2.94-2.74,6.5-4.11,10.69-4.11,6.17,0,10.75,3.18,13.75,9.55Z"/><path d="M231.12,12.21c0-1.95,.71-3.63,2.13-5.05,1.42-1.42,3.12-2.13,5.1-2.13s3.73,.71,5.15,2.13c1.42,1.39,2.13,3.08,2.13,5.1s-.71,3.73-2.13,5.15c-1.39,1.42-3.08,2.13-5.1,2.13s-3.73-.71-5.15-2.13c-1.42-1.42-2.13-3.15-2.13-5.19Zm12.81,20.04v48.19h-11.13V32.25h11.13Z"/><path d="M266.48,42.64v37.8h-11.13V42.64h-4.75v-10.39h4.75V14.59h11.13v17.66h8.66v10.39h-8.66Z"/><path d="M323.56,58.97h-34.54c.3,3.96,1.58,7.11,3.86,9.45,2.28,2.31,5.2,3.46,8.76,3.46,2.77,0,5.06-.66,6.88-1.98,1.78-1.32,3.81-3.76,6.09-7.32l9.4,5.24c-1.45,2.47-2.99,4.59-4.6,6.36-1.62,1.77-3.35,3.22-5.2,4.35-1.85,1.14-3.84,1.97-5.99,2.5-2.14,.53-4.47,.79-6.98,.79-7.19,0-12.96-2.31-17.32-6.93-4.35-4.65-6.53-10.82-6.53-18.51s2.11-13.79,6.33-18.5c4.26-4.65,9.9-6.98,16.92-6.98s12.7,2.26,16.82,6.78c4.09,4.49,6.14,10.7,6.14,18.65l-.05,2.62Zm-11.43-9.1c-1.55-5.94-5.29-8.91-11.23-8.91-1.35,0-2.62,.21-3.81,.62-1.19,.41-2.27,1.01-3.24,1.78-.97,.78-1.81,1.71-2.5,2.8-.69,1.09-1.22,2.33-1.58,3.71h22.36Z"/></g><circle class="cls-1" cx="238.6" cy="10.83" r="10.83"/></svg>