<svg width="18" height="18" viewBox="0 0 18 18" fill="none" xmlns="http://www.w3.org/2000/svg">
<path d="M15.803 16.864C15.9445 17.0006 16.134 17.0761 16.3307 17.0743C16.5273 17.0725 16.7154 16.9935 16.8544 16.8544C16.9934 16.7152 17.0721 16.5271 17.0738 16.3305C17.0754 16.1338 16.9997 15.9444 16.863 15.803L15.803 16.863V16.864ZM12.486 12.486L13.016 11.956C12.9419 11.882 12.8532 11.8244 12.7555 11.7867C12.6578 11.7491 12.5534 11.7323 12.4488 11.7375C12.3443 11.7427 12.2419 11.7697 12.1485 11.8168C12.055 11.8639 11.9724 11.9301 11.906 12.011L12.486 12.486ZM13.628 8.851C13.6072 8.948 13.6058 9.04818 13.624 9.14572C13.6421 9.24326 13.6795 9.33622 13.7338 9.41923C13.7881 9.50224 13.8584 9.57364 13.9406 9.6293C14.0227 9.68496 14.115 9.72377 14.2123 9.74348C14.3095 9.76319 14.4097 9.76341 14.507 9.74413C14.6043 9.72486 14.6969 9.68646 14.7793 9.63117C14.8616 9.57588 14.9322 9.50479 14.9869 9.42202C15.0417 9.33926 15.0794 9.24646 15.098 9.149L13.628 8.851ZM16.864 15.803L13.017 11.956L11.957 13.016L15.803 16.864L16.863 15.803H16.864ZM7.625 13.75C6.00055 13.75 4.44263 13.1047 3.29397 11.956C2.14531 10.8074 1.5 9.24945 1.5 7.625H0C0 9.64728 0.803346 11.5867 2.23331 13.0167C3.66328 14.4467 5.60272 15.25 7.625 15.25V13.75ZM1.5 7.625C1.5 6.00055 2.14531 4.44263 3.29397 3.29397C4.44263 2.14531 6.00055 1.5 7.625 1.5V0C5.60272 0 3.66328 0.803346 2.23331 2.23331C0.803346 3.66328 0 5.60272 0 7.625H1.5ZM7.625 1.5C9.24945 1.5 10.8074 2.14531 11.956 3.29397C13.1047 4.44263 13.75 6.00055 13.75 7.625H15.25C15.25 5.60272 14.4467 3.66328 13.0167 2.23331C11.5867 0.803346 9.64728 0 7.625 0V1.5ZM13.75 7.625C13.75 8.045 13.708 8.455 13.628 8.851L15.098 9.149C15.198 8.656 15.25 8.146 15.25 7.625H13.75V7.625ZM7.625 15.25C9.393 15.25 10.744 14.694 11.653 14.131C12.0211 13.9048 12.367 13.6443 12.686 13.353C12.8069 13.2419 12.9223 13.1251 13.032 13.003L13.054 12.977L13.061 12.968L13.064 12.965L13.065 12.963L12.486 12.486L11.907 12.01L11.908 12.009L11.909 12.008L11.902 12.015C11.8283 12.0965 11.7508 12.1746 11.67 12.249C11.421 12.4759 11.1511 12.6788 10.864 12.855C10.145 13.3 9.064 13.75 7.625 13.75V15.25V15.25Z" fill="#F1F5F9"/>
</svg>
