<svg width="31" height="30" fill="none" xmlns="http://www.w3.org/2000/svg"><rect x=".5" y=".5" width="30" height="29" rx="3.5" fill="#fff" stroke="#B8B8B8"/><path d="M22.803 23.864a.75.75 0 0 0 1.06-1.061l-1.06 1.06Zm-3.317-4.378.53-.53a.75.75 0 0 0-1.11.055l.58.475Zm1.142-3.635a.75.75 0 1 0 1.47.298l-1.47-.298Zm3.236 6.952-3.847-3.847-1.06 1.06 3.846 3.848 1.06-1.061Zm-9.239-2.053A6.125 6.125 0 0 1 8.5 14.625H7a7.625 7.625 0 0 0 7.625 7.625v-1.5ZM8.5 14.625A6.125 6.125 0 0 1 14.625 8.5V7A7.625 7.625 0 0 0 7 14.625h1.5ZM14.625 8.5a6.125 6.125 0 0 1 6.125 6.125h1.5A7.625 7.625 0 0 0 14.625 7v1.5Zm6.125 6.125c0 .42-.042.83-.122 1.226l1.47.298c.1-.493.152-1.003.152-1.524h-1.5Zm-6.125 7.625c1.768 0 3.119-.556 4.028-1.119a6.85 6.85 0 0 0 1.033-.778 5.128 5.128 0 0 0 .346-.35l.022-.026.007-.009.003-.003.001-.002-.579-.477-.579-.476.001-.001.001-.001-.007.007a3.622 3.622 0 0 1-.232.234 5.355 5.355 0 0 1-.806.606c-.719.445-1.8.895-3.239.895v1.5Z" fill="#000"/></svg>