<svg xmlns="http://www.w3.org/2000/svg" viewBox="0 0 58 58" style="enable-background:new 0 0 58 58" xml:space="preserve"><path d="M57.1 11.9c-2.1.9-4.2 1.5-6.5 1.8 2.4-1.4 4.1-3.6 4.9-6.2-2.2 1.3-4.6 2.2-7.1 2.7-4.3-4.5-11.4-4.8-15.9-.5-2.9 2.8-4.2 6.9-3.3 10.8-9-.5-17.4-4.8-23.1-11.8-1 1.7-1.5 3.7-1.5 5.7 0 3.8 1.9 7.3 5 9.4-1.8-.1-3.5-.5-5.1-1.4v.1c0 5.4 3.8 10 9 11-1.7.4-3.4.5-5.1.2 1.5 4.6 5.7 7.7 10.5 7.8-4 3.1-8.9 4.8-14 4.8-.9 0-1.8-.1-2.7-.2 5.1 3.3 11.1 5.1 17.3 5.1 20.7 0 32-17.2 32-32v-1.5c2.2-1.5 4.1-3.5 5.6-5.8z" style="fill:#94a3b8"/></svg>