<svg width="58" height="58" fill="none" xmlns="http://www.w3.org/2000/svg"><path d="M57.137 11.931a22.542 22.542 0 0 1-6.464 1.771 11.286 11.286 0 0 0 4.949-6.23 22.476 22.476 0 0 1-7.148 2.731 11.261 11.261 0 0 0-19.184 10.27A31.97 31.97 0 0 1 6.085 8.71a11.253 11.253 0 0 0-1.522 5.66A11.261 11.261 0 0 0 9.57 23.74a11.23 11.23 0 0 1-5.1-1.409v.145a11.262 11.262 0 0 0 9.032 11.04 11.339 11.339 0 0 1-5.085.193 11.264 11.264 0 0 0 10.518 7.816 22.59 22.59 0 0 1-13.983 4.82c-.898.001-1.796-.051-2.688-.156a31.84 31.84 0 0 0 17.255 5.058c20.711 0 32.033-17.154 32.033-32.03 0-.484-.012-.972-.033-1.456a22.883 22.883 0 0 0 5.613-5.824l.005-.007Z" fill="#fff"/></svg>